<svg xmlns="http://www.w3.org/2000/svg" width="40" height="40" viewBox="0 0 256 256"><style>@media (prefers-color-scheme:dark){.a{fill:#fff}}</style><path class="a" fill="#000" d="M163 19c-13 25-19 38-26 65c-2-8-5-16-9-24c-4-6-14-16-20-16c-5 0-12 4-14 10c-5 12-1 35 10 51c1 1 3 0 3-1s-1-5-1-7c0-5 2-9 5-9c4 0 7 8 9 15c2 8 3 16 4 24c-11 50-23 66-23 72c0 4 5 7 8 7c11 0 24-15 38-49c4-9 7-18 10-28l11 44c2 9 6 15 12 15c5 0 10-6 12-15c5-19 11-57 17-101c3-22 6-49 9-66c1-4-1-7-5-7c-6 0-16 7-16 13c0 1 11 36 0 92c-1-5-4-10-5-11c-6-6-8-6-11-6c-4 0-10 4-14 10c-2-5-6-10-12-10c-9 0-20 11-25 22a68 68 0 0 0-4 37c-6 12-11 14-14 14c-5 0-8-9-8-26c0-9 2-36 4-53c1-10 3-23 4-28c1-3-2-7-7-7c-3 0-8 2-11 8c-10 18-25 57-25 81c0 23 10 38 22 38c14 0 26-15 33-28c3 16 10 28 21 28c10 0 20-10 30-33c1 10 5 21 13 26c3 2 7 3 10 3c10 0 19-8 19-17c0-18-20-45-20-72c0-9 3-19 6-26c2-5 4-6 6-6c1 0 3 0 3 5c0 14-4 42 0 58c3 16 9 23 16 23c4 0 7-2 10-6c7-7 12-17 15-30c1-6-2-10-5-10c-4 0-9 3-10 10c-1 10-3 17-4 17s-2-4-2-9v-15c0-27 1-58-10-80c-5-11-13-17-21-17c-11 0-20 10-26 19c-7 15-11 32-11 41c0 14 4 27 10 42c3 6 1 11-1 16c-1 4-4 8-7 8c-5 0-9-11-10-18c-3-14-3-31-1-51c1-9 2-32 3-38c1-3-1-7-5-7c-7 0-11 5-15 11c-4 7-8 13-17 13h-1c4-10 6-23 6-35c0-13-4-22-10-22c-13 0-19 25-21 38c-3 17-3 35 1 48c-4 16-12 38-18 38c-4 0-4-17-4-33l1-36l1-24c0-5-3-10-9-10c-10 0-13 8-17 15c-5 10-10 19-20 19c-1 0-3 0-4-2c-2-2-3-6-3-11c0-9 4-17 4-20c0-3-1-5-4-5c-10 0-18 16-18 37c0 10 2 18 6 24c-6 12-13 24-13 34c0 5 3 8 7 8c9 0 11-6 13-16l3-12c9 3 18 4 26 4c27 0 43-15 56-31l7 2c7 3 13 4 18 4c12 0 20-5 25-15c3 9 11 15 19 15c10 0 18-7 23-15c4 8 11 14 20 14c17 0 27-15 29-19c4-6 4-12 1-16c-2-3-6-3-8 1c-1 2-5 10-13 10c-7 0-15-5-15-31c0-35 11-45 18-45c4 0 7 3 7 12c0 11-4 21-4 23c0 3 1 5 4 5c5 0 11-9 14-22c0-2 1-5 1-7c0-9-6-20-19-20c-29 0-39 31-39 57c-3 8-7 18-10 18c-6 0-8-41-8-52c12-7 27-24 27-39c0-9-4-16-11-16c-13 0-20 19-22 31c-1 9-1 17 0 24c-5 6-12 11-17 11c-2 0-4-1-5-4c-5-12-3-40 0-62c17-17 37-33 42-42c2-3 2-6-1-8c-7-6-34 14-45 27a137 137 0 0 0-32 51c-5-7-13-12-22-12c-12 0-25 7-33 20c-1-7-6-15-14-15c-8 0-16 8-20 19c-7 17-8 41-5 58c-3 6-6 9-9 9c-10 0-10-58-10-72c25-17 47-43 47-68c0-15-10-23-19-23c-21 0-31 22-33 40c-1 10 0 18 3 25c-13 20-30 42-30 65c0 12 4 24 15 24c12 0 17-10 18-23l1-11c12-13 22-25 31-52c3 5 7 9 14 9c3 0 7-1 10-4c-2 26 0 52 10 52c6 0 10-4 14-10c6 6 13 10 21 10c11 0 21-7 28-15c5 9 12 15 22 15c23 0 33-19 38-31c6 0 13-1 17-3c-8 27-17 52-28 66c-8 11-16 19-28 19c-11 0-19-10-20-20c-6 6-14 10-23 10c-9 0-17-5-22-12c-10 8-23 13-39 13c-18 0-34-6-40-22c-12 16-23 22-35 22c-22 0-25-25-25-38c0-17 5-33 13-46l1 11c1 23 7 40 33 40c20 0 35-11 46-21v3c0 11 3 18 10 18c12 0 16-12 18-19c19 2 31-8 31-21c0-8-4-13-8-14c-3-1-8 2-8 6c0 1 0 2 2 2l2 1c-2 3-7 6-15 6c-4 0-10-1-15-3c6-18 17-41 27-58c4-8 13-8 17-8s7 2 7 5c0 4-2 9-6 9c-1 0-2-1-3-1c-3-1-7 1-7 6c0 4 3 10 12 10c13 0 21-11 21-24c0-12-11-23-30-23c-11 0-21 4-29 10c-11 8-19 17-29 34c-5-1-10 0-15 2c1-5 2-10 2-15c0-20-14-29-26-29c-26 0-37 28-37 45c0 5 1 8 2 12zm-96 64a68 68 0 0 1 10-26c3-3 5-5 7-5c2 0 3 2 3 7s-2 17-9 37c-1-5-4-9-11-13zm73-29c-5 10-12 20-18 27a89 89 0 0 1-2-19c0-24 11-31 15-31c5 0 7 5 5 23zm-37 26c0-23 12-43 21-43c4 0 7 3 7 11c0 19-24 37-28 37v-5zm137-9c-1 0-2 0-2-1c-1-1-1-2-1-3c0-2 2-4 3-4c2 0 3 2 3 4c0 2-1 4-3 4z"/></svg>